<svg xmlns="http://www.w3.org/2000/svg" width="256" height="256" viewBox="0 0 256 256"><defs><linearGradient id="m" x1="0" y1="0" x2="1" y2="1"><stop stop-color="#f1f4f6"/><stop offset="1" stop-color="#505a63"/></linearGradient><filter id="s"><feDropShadow dx="0" dy="7" stdDeviation="6" flood-opacity=".45"/></filter></defs><g filter="url(#s)" stroke-linecap="round" stroke-linejoin="round"><path d="M55 171c-21-39 3-96 50-104 46-8 97 24 96 68-1 37-31 58-61 51-23-5-31-25-19-42 9-13 28-16 40-5" fill="none" stroke="#20262d" stroke-width="16"/><path d="M55 171c-21-39 3-96 50-104 46-8 97 24 96 68" fill="none" stroke="#78838d" stroke-width="5"/><path d="M45 161h24v48H45zM191 63h22v45h-22z" fill="url(#m)" stroke="#5d666e" stroke-width="4"/></g></svg>